<svg width="313" height="112" viewBox="0 0 313 112" fill="none" xmlns="http://www.w3.org/2000/svg">
<g filter="url(#filter0_d_100_1224)">
<path d="M200.296 102.73V83.8137H202.561V102.73H200.296ZM200.296 95.0967V93.0186H210.381V95.0967H200.296ZM200.296 85.9052V83.8137H212.605V85.9052H200.296ZM220.133 102.996C218.215 102.996 216.723 102.357 215.657 101.078C214.592 99.7991 214.059 97.9963 214.059 95.6695C214.059 93.3339 214.592 91.5311 215.657 90.2612C216.723 88.9823 218.215 88.3429 220.133 88.3429C222.06 88.3429 223.552 88.9823 224.609 90.2612C225.675 91.5311 226.208 93.3339 226.208 95.6695C226.208 97.9963 225.675 99.7991 224.609 101.078C223.552 102.357 222.06 102.996 220.133 102.996ZM220.133 100.905C221.314 100.905 222.225 100.452 222.864 99.546C223.503 98.6313 223.823 97.3391 223.823 95.6695C223.823 94 223.503 92.7123 222.864 91.8064C222.225 90.8917 221.314 90.4343 220.133 90.4343C218.952 90.4343 218.042 90.8917 217.402 91.8064C216.763 92.7123 216.443 94 216.443 95.6695C216.443 97.3391 216.763 98.6313 217.402 99.546C218.042 100.452 218.952 100.905 220.133 100.905ZM234.482 102.996C232.563 102.996 231.071 102.357 230.006 101.078C228.94 99.7991 228.407 97.9963 228.407 95.6695C228.407 93.3339 228.94 91.5311 230.006 90.2612C231.071 88.9823 232.563 88.3429 234.482 88.3429C236.409 88.3429 237.901 88.9823 238.958 90.2612C240.023 91.5311 240.556 93.3339 240.556 95.6695C240.556 97.9963 240.023 99.7991 238.958 101.078C237.901 102.357 236.409 102.996 234.482 102.996ZM234.482 100.905C235.663 100.905 236.573 100.452 237.212 99.546C237.852 98.6313 238.172 97.3391 238.172 95.6695C238.172 94 237.852 92.7123 237.212 91.8064C236.573 90.8917 235.663 90.4343 234.482 90.4343C233.301 90.4343 232.39 90.8917 231.751 91.8064C231.111 92.7123 230.792 94 230.792 95.6695C230.792 97.3391 231.111 98.6313 231.751 99.546C232.39 100.452 233.301 100.905 234.482 100.905ZM247.858 102.996C246.01 102.996 244.607 102.388 243.648 101.171C242.698 99.9545 242.223 98.165 242.223 95.8028C242.223 93.3517 242.702 91.4956 243.662 90.2345C244.621 88.9735 246.028 88.3429 247.884 88.3429C249.039 88.3429 249.967 88.6049 250.668 89.1289C251.379 89.6528 251.81 90.3988 251.961 91.3668H253L252.174 95.3232C252.174 93.6891 251.85 92.4547 251.201 91.6199C250.562 90.7762 249.612 90.3544 248.351 90.3544C247.089 90.3544 246.135 90.8162 245.487 91.7398C244.838 92.6545 244.514 94.0088 244.514 95.8028C244.514 97.5079 244.838 98.8 245.487 99.6792C246.144 100.55 247.103 100.985 248.364 100.985C249.616 100.985 250.562 100.567 251.201 99.7325C251.85 98.8888 252.174 97.6499 252.174 96.0159L253.133 99.919H251.987C251.854 100.878 251.432 101.633 250.722 102.184C250.02 102.725 249.065 102.996 247.858 102.996ZM252.467 102.863L252.174 99.7858V82.748H254.478V102.756L252.467 102.863Z" fill="#155D27"/>
</g>
<g filter="url(#filter1_d_100_1224)">
<path d="M32.4902 76V19.252H43.0406V76H32.4902ZM4.9155 76V19.252H15.4658V76H4.9155ZM6.59396 52.6214V42.8704H41.5619V52.6214H6.59396ZM72.0172 76.7993C64.6906 76.7993 59.0291 74.9077 55.0328 71.1245C51.0364 67.3146 49.0383 61.853 49.0383 54.7395C49.0383 47.8125 50.73 42.4308 54.1136 38.5943C57.5238 34.7578 62.3194 32.8396 68.5004 32.8396C74.5482 32.8396 79.2239 34.6113 82.5276 38.1547C85.8312 41.6981 87.483 46.8534 87.483 53.6205C87.483 55.5388 87.4031 57.3637 87.2432 59.0955H56.1517V51.5824H76.8528C76.8528 48.7317 76.1201 46.547 74.6548 45.0284C73.2161 43.5098 71.1913 42.7505 68.5803 42.7505C65.7563 42.7505 63.5583 43.7629 61.9864 45.7877C60.4411 47.7859 59.6685 50.6366 59.6685 54.3399C59.6685 58.3362 60.8141 61.3734 63.1054 63.4515C65.4232 65.5296 68.7136 66.5686 72.9763 66.5686C74.8946 66.5686 76.7862 66.4754 78.6511 66.2889C80.5161 66.0758 82.421 65.796 84.3659 65.4497L85.4049 75.6803C82.6874 76.1599 80.2097 76.4662 77.9717 76.5995C75.7338 76.7327 73.7489 76.7993 72.0172 76.7993ZM121.135 76.3996L120.216 63.8511L120.056 58.3362V50.0638C120.056 47.7992 119.084 46.1474 117.139 45.1083C115.221 44.0426 112.357 43.4565 108.547 43.3499L97.7168 43.0702L98.5161 33.2392L107.748 33.3591C115.421 33.4656 121.122 34.9843 124.852 37.9149C128.582 40.8189 130.447 45.0683 130.447 50.6632V66.3289L136.321 67.2081V76L121.135 76.3996ZM106.789 76.7993C102.286 76.7993 98.7825 75.6936 96.2782 73.4823C93.7738 71.271 92.5216 68.1272 92.5216 64.051C92.5216 59.3086 94.1601 55.672 97.4371 53.1409C100.714 50.6099 105.363 49.3444 111.384 49.3444C113.702 49.3444 115.7 49.4643 117.379 49.7041C119.084 49.9439 120.802 50.3169 122.534 50.8231L120.776 59.2553C119.071 58.8557 117.539 58.6293 116.18 58.576C114.821 58.496 113.396 58.4561 111.904 58.4561C106.309 58.4561 103.512 60.0546 103.512 63.2517C103.512 64.6904 104.018 65.796 105.03 66.5686C106.043 67.3146 107.521 67.6876 109.466 67.6876C111.811 67.6876 113.769 67.248 115.341 66.3688C116.913 65.4896 118.085 64.3707 118.857 63.0119C119.657 61.6531 120.056 60.2544 120.056 58.8157V56.1782L121.575 67.0482H118.178L119.577 65.7694C119.497 68.2205 118.937 70.2719 117.898 71.9237C116.859 73.5489 115.394 74.7745 113.502 75.6004C111.637 76.3996 109.399 76.7993 106.789 76.7993ZM157.791 76.7993C152.463 76.7993 148.613 75.3339 146.242 72.4033C143.897 69.4726 142.725 64.7836 142.725 58.3362V16.0549H153.515V57.9366C153.515 59.6949 153.702 61.1336 154.075 62.2526C154.448 63.3716 155.167 64.1975 156.233 64.7303C157.299 65.2632 158.884 65.5296 160.988 65.5296C163.333 65.5296 166.29 65.0234 169.86 64.011L171.099 75.1208C168.835 75.7069 166.65 76.1332 164.545 76.3996C162.44 76.6661 160.189 76.7993 157.791 76.7993ZM130.736 26.0058V16.0549H143.445V26.0058H130.736ZM197.785 76.7993C190.485 76.7993 185.21 75.3339 181.96 72.4033C178.709 69.4726 177.084 64.7836 177.084 58.3362V52.8212H187.874V57.2971C187.874 60.5209 188.7 62.8654 190.352 64.3307C192.03 65.796 194.775 66.5287 198.584 66.5287C199.81 66.5287 201.115 66.4621 202.501 66.3289C203.913 66.169 205.511 65.9692 207.296 65.7294L208.256 75.8401C206.497 76.1599 204.779 76.3996 203.1 76.5595C201.448 76.7193 199.677 76.7993 197.785 76.7993ZM177.084 55.3389V20.8505H187.874V55.3389H177.084ZM166.933 43.5897V33.6388H206.657V43.5897H166.933ZM243.863 76V50.4234C243.863 48.0523 243.33 46.2273 242.264 44.9485C241.225 43.6696 239.733 43.0302 237.788 43.0302C232.353 43.0302 229.636 46.7468 229.636 54.18L227.158 41.3118H230.675C231.075 38.4611 232.047 36.343 233.592 34.9576C235.138 33.5456 237.482 32.8396 240.626 32.8396C245.102 32.8396 248.565 34.1983 251.016 36.9158C253.467 39.6333 254.693 43.4698 254.693 48.4253V76H243.863ZM218.806 76V16.0549H229.636V76H218.806ZM263.045 95.1824L262.646 85.791L269.959 84.9918C272.463 84.6987 274.608 84.0326 276.393 82.9936C278.178 81.9545 279.697 80.396 280.949 78.3179C282.228 76.2664 283.333 73.5756 284.266 70.2453L294.497 33.6388H305.966L294.057 72.2434C292.458 77.3321 290.62 81.4217 288.542 84.5122C286.464 87.6293 283.999 89.9472 281.149 91.4658C278.298 93.0111 274.888 93.9835 270.918 94.3832L263.045 95.1824ZM276.473 76L262.246 33.6388H273.716L284.226 66.8084H286.144V76H276.473Z" fill="url(#paint0_linear_100_1224)"/>
</g>
<defs>
<filter id="filter0_d_100_1224" x="197.296" y="81.748" width="64.1818" height="30.2481" filterUnits="userSpaceOnUse" color-interpolation-filters="sRGB">
<feFlood flood-opacity="0" result="BackgroundImageFix"/>
<feColorMatrix in="SourceAlpha" type="matrix" values="0 0 0 0 0 0 0 0 0 0 0 0 0 0 0 0 0 0 127 0" result="hardAlpha"/>
<feOffset dx="2" dy="4"/>
<feGaussianBlur stdDeviation="2.5"/>
<feComposite in2="hardAlpha" operator="out"/>
<feColorMatrix type="matrix" values="0 0 0 0 0 0 0 0 0 0 0 0 0 0 0 0 0 0 0.1 0"/>
<feBlend mode="normal" in2="BackgroundImageFix" result="effect1_dropShadow_100_1224"/>
<feBlend mode="normal" in="SourceGraphic" in2="effect1_dropShadow_100_1224" result="shape"/>
</filter>
<filter id="filter1_d_100_1224" x="1.9155" y="15.0549" width="311.051" height="89.1275" filterUnits="userSpaceOnUse" color-interpolation-filters="sRGB">
<feFlood flood-opacity="0" result="BackgroundImageFix"/>
<feColorMatrix in="SourceAlpha" type="matrix" values="0 0 0 0 0 0 0 0 0 0 0 0 0 0 0 0 0 0 127 0" result="hardAlpha"/>
<feOffset dx="2" dy="4"/>
<feGaussianBlur stdDeviation="2.5"/>
<feComposite in2="hardAlpha" operator="out"/>
<feColorMatrix type="matrix" values="0 0 0 0 0 0 0 0 0 0 0 0 0 0 0 0 0 0 0.2 0"/>
<feBlend mode="normal" in2="BackgroundImageFix" result="effect1_dropShadow_100_1224"/>
<feBlend mode="normal" in="SourceGraphic" in2="effect1_dropShadow_100_1224" result="shape"/>
</filter>
<linearGradient id="paint0_linear_100_1224" x1="7.14273" y1="20.3214" x2="266.143" y2="93.3214" gradientUnits="userSpaceOnUse">
<stop offset="0.0050441" stop-color="#25A244"/>
<stop offset="1" stop-color="#11AF33"/>
</linearGradient>
</defs>
</svg>
